<?xml version="1.0" encoding="UTF-8"?>
<svg xmlns="http://www.w3.org/2000/svg" xmlns:xlink="http://www.w3.org/1999/xlink" width="226px" height="197px" viewBox="0 0 226 197" version="1.1">
<g id="surface1">
<path style=" stroke:none;fill-rule:nonzero;fill:rgb(100%,100%,100%);fill-opacity:1;" d="M 16.761719 166.289062 C 22.828125 167.050781 21.765625 171.984375 18.820312 171.984375 C 17.828125 171.953125 16.886719 171.542969 16.1875 170.84375 C 15.125 169.933594 14.75 167.804688 12.324219 167.804688 C 6.410156 167.804688 5.125 175.351562 5.125 179.871094 C 5.089844 187.617188 10.390625 194.683594 20.929688 194.683594 C 31.464844 194.683594 37.425781 187.542969 37.425781 177.753906 C 37.425781 156.191406 6.652344 167.203125 6.652344 149.207031 C 6.652344 141.390625 13.550781 137.976562 20.902344 137.976562 C 23.378906 137.964844 25.84375 138.351562 28.203125 139.113281 L 28.28125 139.039062 C 29.59375 139.503906 30.859375 140.089844 32.070312 140.78125 C 32.113281 140.820312 32.167969 140.847656 32.226562 140.855469 C 33.285156 141.480469 34.253906 142.246094 35.101562 143.132812 C 37.078125 145.488281 35.714844 147.539062 34.042969 147.539062 C 33.597656 147.523438 33.164062 147.386719 32.792969 147.144531 C 32.417969 146.902344 32.117188 146.566406 31.917969 146.167969 C 30.855469 144.492188 31.164062 142.296875 28.054688 140.679688 C 25.941406 139.898438 23.707031 139.488281 21.457031 139.464844 C 16.378906 139.464844 11.863281 141.667969 11.605469 146.90625 C 11.152344 160.339844 44.277344 152.394531 44.351562 177.191406 C 44.351562 187.96875 35.554688 196.46875 21.058594 196.46875 C 8.933594 196.394531 0.898438 190.09375 0.445312 180.757812 C -0.144531 170.535156 7.890625 165.183594 16.761719 166.289062 Z M 16.761719 166.289062 "/>
<path style=" stroke:none;fill-rule:nonzero;fill:rgb(100%,100%,100%);fill-opacity:1;" d="M 66.261719 151.105469 L 66.886719 151.105469 C 76.285156 151.40625 82.195312 157.789062 82.195312 166.667969 C 82.21875 166.996094 82.167969 167.328125 82.050781 167.640625 C 81.933594 167.949219 81.746094 168.230469 81.507812 168.460938 C 81.269531 168.691406 80.984375 168.867188 80.671875 168.976562 C 80.359375 169.085938 80.027344 169.128906 79.695312 169.09375 L 55.5 169.09375 C 55.574219 180.40625 62.015625 184.875 68.515625 184.730469 C 72.90625 184.652344 76.851562 182.988281 79.203125 179.042969 C 79.308594 178.828125 79.46875 178.644531 79.667969 178.507812 C 79.871094 178.375 80.101562 178.296875 80.339844 178.28125 C 80.535156 178.300781 80.71875 178.371094 80.875 178.484375 C 81.03125 178.601562 81.152344 178.753906 81.230469 178.933594 C 81.308594 179.113281 81.335938 179.308594 81.3125 179.5 C 81.285156 179.691406 81.210938 179.875 81.09375 180.03125 C 78.820312 184.203125 73.441406 186.933594 67.304688 186.933594 C 58.808594 186.933594 49.867188 182.128906 49.714844 169.171875 C 49.585938 158.542969 55.875 151.105469 66.261719 151.105469 Z M 55.648438 166.96875 L 73.160156 166.96875 C 76.039062 166.96875 77.175781 165.679688 77.175781 163.175781 C 77.175781 158.164062 73.613281 153.308594 66.898438 153.308594 C 59.511719 153.519531 56.101562 158.925781 55.648438 166.96875 Z M 55.648438 166.96875 "/>
<path style=" stroke:none;fill-rule:nonzero;fill:rgb(100%,100%,100%);fill-opacity:1;" d="M 58.300781 131.753906 C 59.898438 131.753906 61.410156 132.890625 61.726562 135.621094 C 62.101562 139.492188 65.152344 140.933594 69.261719 140.933594 C 76.996094 140.933594 88.59375 135.699219 92.992188 132.433594 C 93.269531 132.207031 93.621094 132.101562 93.972656 132.128906 C 94.097656 132.121094 94.222656 132.140625 94.34375 132.179688 C 94.460938 132.222656 94.570312 132.289062 94.664062 132.375 C 94.753906 132.460938 94.828125 132.5625 94.878906 132.679688 C 94.929688 132.792969 94.957031 132.917969 94.960938 133.042969 L 94.960938 181.320312 C 94.960938 185.339844 97.160156 184.75 99.753906 185.113281 C 99.839844 185.117188 99.921875 185.140625 100 185.175781 C 100.074219 185.214844 100.144531 185.265625 100.199219 185.328125 C 100.257812 185.394531 100.300781 185.464844 100.328125 185.546875 C 100.355469 185.625 100.367188 185.710938 100.363281 185.796875 C 100.355469 185.882812 100.335938 185.964844 100.296875 186.039062 C 100.261719 186.117188 100.210938 186.183594 100.148438 186.242188 C 100.082031 186.296875 100.007812 186.339844 99.929688 186.367188 C 99.851562 186.398438 99.765625 186.410156 99.679688 186.402344 L 85.058594 186.402344 C 84.890625 186.414062 84.722656 186.355469 84.59375 186.242188 C 84.464844 186.128906 84.390625 185.96875 84.378906 185.796875 C 84.367188 185.625 84.425781 185.457031 84.539062 185.328125 C 84.65625 185.203125 84.8125 185.125 84.984375 185.113281 C 87.5625 184.730469 89.78125 185.339844 89.78125 181.320312 L 89.78125 140.933594 C 89.78125 138.964844 89.171875 138.125 88.035156 138.125 C 87.34375 138.148438 86.671875 138.332031 86.066406 138.660156 L 86.144531 138.660156 C 80.078125 141.242188 72.570312 143.519531 66.433594 143.519531 C 61.128906 143.519531 56.839844 141.769531 55.292969 137.214844 C 54.210938 133.796875 56.253906 131.753906 58.300781 131.753906 Z M 58.300781 131.753906 "/>
<path style=" stroke:none;fill-rule:nonzero;fill:rgb(100%,100%,100%);fill-opacity:1;" d="M 118.484375 151.03125 L 119.171875 151.03125 C 128.496094 151.332031 134.40625 157.714844 134.40625 166.589844 C 134.429688 166.921875 134.378906 167.253906 134.257812 167.5625 C 134.140625 167.871094 133.957031 168.152344 133.71875 168.382812 C 133.480469 168.613281 133.195312 168.789062 132.882812 168.898438 C 132.570312 169.011719 132.238281 169.050781 131.90625 169.019531 L 107.800781 169.019531 C 107.800781 180.332031 114.320312 184.796875 120.816406 184.652344 C 131.503906 184.652344 135.976562 174.5625 140.902344 165.375 L 140.902344 159.53125 C 140.902344 155.414062 140.449219 155.511719 136.792969 155.511719 C 136.03125 155.511719 135.65625 154.449219 136.867188 154.136719 C 139.722656 153.414062 142.511719 152.449219 145.203125 151.25 C 145.582031 151.023438 146.117188 151.097656 146.117188 151.636719 L 146.117188 157.320312 C 149.070312 153.679688 152.78125 151.097656 158.015625 151.097656 C 164.53125 150.875 170.902344 154.289062 170.902344 161.199219 L 170.902344 181.390625 C 170.902344 185.410156 173.101562 184.722656 175.699219 185.183594 C 176.382812 185.332031 176.382812 186.472656 175.625 186.472656 L 170.390625 186.472656 C 166.222656 186.472656 165.6875 184.269531 165.6875 181.539062 L 165.6875 161.207031 C 165.6875 156.574219 162.125 154.296875 158.035156 153.988281 C 140.449219 153.988281 142.726562 186.855469 120.816406 186.855469 L 119.527344 186.855469 C 111.039062 186.855469 102.175781 182.054688 101.941406 169.09375 C 101.886719 158.46875 108.105469 151.03125 118.484375 151.03125 Z M 125.386719 166.890625 C 128.269531 166.890625 129.40625 165.601562 129.40625 163.097656 C 129.480469 158.089844 125.84375 153.234375 119.171875 153.234375 C 111.746094 153.460938 108.332031 158.851562 107.875 166.890625 Z M 136.148438 185.1875 C 138.730469 184.730469 140.945312 185.414062 140.945312 181.394531 L 140.945312 173.195312 C 142.082031 170.996094 143.144531 168.792969 144.28125 166.742188 C 144.386719 166.546875 144.539062 166.382812 144.722656 166.261719 C 144.910156 166.144531 145.121094 166.070312 145.34375 166.054688 C 145.800781 166.054688 146.179688 166.433594 146.179688 167.195312 L 146.179688 181.390625 C 146.179688 185.410156 148.378906 184.722656 150.972656 185.183594 C 151.660156 185.332031 151.660156 186.472656 150.898438 186.472656 L 136.222656 186.472656 C 135.46875 186.453125 135.46875 185.339844 136.148438 185.1875 Z M 136.148438 185.1875 "/>
<path style=" stroke:none;fill-rule:nonzero;fill:rgb(100%,100%,100%);fill-opacity:1;" d="M 195.730469 151.03125 L 196.367188 151.03125 C 205.765625 151.332031 211.679688 157.789062 211.679688 166.589844 C 211.695312 166.929688 211.636719 167.269531 211.511719 167.582031 C 211.386719 167.898438 211.195312 168.183594 210.953125 168.421875 C 210.707031 168.65625 210.417969 168.839844 210.101562 168.957031 C 209.78125 169.070312 209.441406 169.121094 209.105469 169.09375 L 184.96875 169.09375 C 185.042969 179.949219 192.402344 184.875 200.355469 184.875 C 204.753906 184.859375 209.039062 183.492188 212.640625 180.964844 L 212.714844 180.964844 C 222.640625 173 223.550781 160.472656 217.511719 151.820312 C 215.085938 148.390625 217.285156 145.824219 219.632812 145.824219 C 220.195312 145.835938 220.746094 146 221.226562 146.292969 C 221.707031 146.582031 222.101562 146.996094 222.375 147.492188 C 229.800781 160.394531 223.4375 176.484375 214.261719 182.710938 C 210.472656 185.667969 205.164062 187.269531 199.785156 187.269531 C 189.625 187.269531 179.390625 181.648438 179.234375 169.121094 C 179.054688 158.542969 185.351562 151.03125 195.730469 151.03125 Z M 202.628906 166.96875 C 205.515625 166.96875 206.574219 165.59375 206.652344 163.175781 C 206.652344 158.089844 203.089844 153.234375 196.339844 153.234375 C 188.988281 153.460938 185.578125 158.851562 185.042969 166.953125 Z M 202.628906 166.96875 "/>
<path style=" stroke:none;fill-rule:nonzero;fill:rgb(100%,100%,100%);fill-opacity:1;" d="M 119.90625 68.65625 C 124.414062 66.34375 128.605469 63.722656 132.792969 61.109375 C 134.625 59.886719 136.292969 58.433594 137.757812 56.789062 C 138.871094 55.457031 140.316406 54.445312 141.945312 53.851562 C 143.574219 53.332031 144.953125 54.25 144.855469 55.863281 C 144.84375 56.074219 144.789062 56.285156 144.691406 56.472656 C 144.355469 57.097656 143.953125 57.695312 143.644531 58.339844 C 142.773438 60.117188 141.074219 60.964844 139.574219 62.015625 C 137.601562 63.386719 135.648438 64.835938 133.570312 66.0625 C 132.4375 66.703125 131.199219 67.136719 129.914062 67.347656 C 126.90625 67.882812 123.871094 68.238281 120.84375 68.65625 C 120.53125 68.675781 120.21875 68.675781 119.90625 68.65625 Z M 119.683594 67.765625 C 123.546875 66.097656 127.21875 64.03125 130.648438 61.589844 C 131.253906 61.242188 131.765625 60.742188 132.132812 60.144531 C 132.984375 57.964844 134.15625 55.925781 135.605469 54.09375 C 136.492188 53.078125 136.101562 51.957031 134.785156 51.628906 C 134.078125 51.441406 133.328125 51.46875 132.636719 51.707031 C 131.941406 51.941406 131.332031 52.378906 130.886719 52.960938 C 129.253906 54.859375 127.746094 56.863281 126.371094 58.957031 C 124.796875 61.460938 122.691406 63.59375 120.207031 65.199219 C 118.289062 66.433594 116.320312 67.585938 114.449219 68.734375 C 116.234375 68.683594 118 68.355469 119.683594 67.765625 Z M 111.808594 0.53125 C 110.414062 0.535156 109.054688 0.949219 107.898438 1.722656 C 106.742188 2.5 105.839844 3.601562 105.308594 4.890625 C 104.777344 6.175781 104.640625 7.59375 104.914062 8.960938 C 105.1875 10.328125 105.859375 11.582031 106.847656 12.566406 C 107.832031 13.550781 109.085938 14.21875 110.453125 14.488281 C 111.816406 14.761719 113.230469 14.617188 114.515625 14.082031 C 115.800781 13.546875 116.898438 12.640625 117.671875 11.480469 C 118.441406 10.320312 118.851562 8.957031 118.851562 7.5625 C 118.847656 6.640625 118.664062 5.722656 118.3125 4.871094 C 117.957031 4.015625 117.4375 3.238281 116.785156 2.585938 C 116.128906 1.933594 115.351562 1.414062 114.5 1.0625 C 113.644531 0.710938 112.730469 0.53125 111.808594 0.53125 Z M 89.101562 22.300781 C 90.34375 22.132812 91.511719 21.617188 92.472656 20.820312 C 91.164062 20.65625 89.949219 20.066406 89.011719 19.140625 C 88.070312 18.214844 87.464844 17.003906 87.28125 15.695312 C 87.097656 14.390625 87.347656 13.058594 87.996094 11.910156 C 88.644531 10.761719 89.652344 9.859375 90.863281 9.339844 C 89.902344 8.921875 88.859375 8.734375 87.8125 8.789062 C 86.769531 8.84375 85.75 9.140625 84.835938 9.652344 C 83.925781 10.167969 83.144531 10.886719 82.554688 11.753906 C 81.96875 12.621094 81.585938 13.609375 81.445312 14.648438 C 81.300781 15.6875 81.402344 16.746094 81.738281 17.738281 C 82.070312 18.730469 82.628906 19.632812 83.371094 20.375 C 84.109375 21.117188 85.011719 21.675781 86.003906 22.011719 C 86.996094 22.34375 88.050781 22.441406 89.089844 22.300781 Z M 142.285156 16.8125 C 142.449219 15.617188 142.289062 14.398438 141.824219 13.285156 C 141.363281 12.171875 140.609375 11.199219 139.648438 10.472656 C 138.6875 9.746094 137.550781 9.289062 136.351562 9.148438 C 135.15625 9.007812 133.941406 9.1875 132.839844 9.671875 C 134.050781 10.183594 135.058594 11.082031 135.707031 12.226562 C 136.359375 13.371094 136.617188 14.699219 136.4375 16.003906 C 136.261719 17.308594 135.660156 18.519531 134.730469 19.449219 C 133.796875 20.378906 132.585938 20.976562 131.285156 21.148438 C 132.21875 21.910156 133.339844 22.410156 134.53125 22.597656 C 135.71875 22.78125 136.941406 22.648438 138.0625 22.203125 C 139.183594 21.761719 140.167969 21.03125 140.910156 20.082031 C 141.65625 19.132812 142.136719 18 142.300781 16.804688 Z M 79.09375 35.765625 C 79.523438 34.566406 79.648438 33.277344 79.457031 32.015625 C 79.394531 32.253906 79.328125 32.496094 79.242188 32.699219 C 78.945312 33.535156 78.480469 34.300781 77.886719 34.957031 C 77.289062 35.613281 76.570312 36.144531 75.769531 36.523438 C 74.964844 36.898438 74.097656 37.113281 73.214844 37.15625 C 72.328125 37.195312 71.445312 37.0625 70.613281 36.761719 C 69.777344 36.460938 69.011719 36 68.359375 35.402344 C 67.703125 34.804688 67.171875 34.085938 66.796875 33.28125 C 66.417969 32.480469 66.203125 31.609375 66.164062 30.722656 C 66.121094 29.835938 66.253906 28.953125 66.554688 28.117188 C 66.636719 27.882812 66.742188 27.652344 66.84375 27.433594 C 65.886719 28.277344 65.164062 29.351562 64.734375 30.554688 C 64.046875 32.464844 64.144531 34.570312 65.007812 36.40625 C 65.875 38.242188 67.429688 39.664062 69.335938 40.351562 C 71.246094 41.039062 73.347656 40.9375 75.183594 40.074219 C 77.015625 39.210938 78.433594 37.652344 79.121094 35.738281 Z M 154.332031 40.5 C 156.230469 39.804688 157.773438 38.386719 158.628906 36.554688 C 159.484375 34.71875 159.578125 32.621094 158.894531 30.71875 C 158.460938 29.515625 157.730469 28.445312 156.769531 27.601562 C 156.882812 27.824219 156.980469 28.054688 157.0625 28.289062 C 157.675781 29.972656 157.59375 31.828125 156.839844 33.453125 C 156.082031 35.074219 154.710938 36.332031 153.03125 36.945312 C 151.351562 37.554688 149.496094 37.476562 147.875 36.71875 C 146.253906 35.960938 145 34.589844 144.390625 32.90625 C 144.304688 32.683594 144.234375 32.453125 144.175781 32.21875 C 143.980469 33.53125 144.125 34.871094 144.601562 36.105469 C 145.078125 37.34375 145.867188 38.433594 146.890625 39.273438 C 147.914062 40.113281 149.136719 40.671875 150.441406 40.894531 C 151.746094 41.117188 153.085938 40.996094 154.332031 40.542969 Z M 164.167969 71.242188 C 163.441406 75.21875 162.179688 79.078125 160.414062 82.714844 C 158.703125 86.339844 156.570312 89.75 154.054688 92.875 C 149.046875 99.023438 142.726562 103.972656 135.558594 107.363281 C 133.777344 108.242188 131.96875 108.929688 130.121094 109.613281 C 129.1875 109.917969 128.261719 110.238281 127.324219 110.5 C 126.386719 110.757812 125.441406 111.035156 124.488281 111.234375 C 112.972656 113.949219 100.878906 112.742188 90.125 107.804688 C 82.867188 104.542969 76.460938 99.648438 71.398438 93.503906 C 70.777344 92.722656 70.140625 91.949219 69.570312 91.132812 C 69.28125 90.71875 68.972656 90.320312 68.695312 89.910156 L 67.871094 88.648438 L 67.460938 88.023438 L 67.078125 87.335938 L 66.308594 86.042969 C 65.835938 85.15625 65.351562 84.277344 64.9375 83.367188 C 64.527344 82.453125 64.078125 81.554688 63.707031 80.621094 C 63.519531 80.15625 63.316406 79.695312 63.136719 79.25 L 62.625 77.824219 C 62.445312 77.347656 62.292969 76.867188 62.152344 76.386719 C 62.007812 75.910156 61.851562 75.421875 61.710938 74.941406 C 61.574219 74.460938 61.488281 73.953125 61.371094 73.460938 C 61.253906 72.964844 61.136719 72.476562 61.054688 71.984375 C 60.222656 68.019531 59.855469 63.972656 59.957031 59.921875 C 60.074219 55.867188 60.640625 51.839844 61.65625 47.910156 C 60.558594 51.828125 59.90625 55.855469 59.703125 59.917969 C 59.519531 63.992188 59.808594 68.074219 60.5625 72.082031 C 60.972656 74.078125 61.472656 76.050781 62.035156 78.015625 L 62.480469 79.484375 C 62.636719 79.96875 62.816406 80.445312 62.988281 80.929688 C 63.308594 81.898438 63.671875 82.835938 64.097656 83.792969 C 65.679688 87.582031 67.6875 91.179688 70.078125 94.519531 C 74.929688 101.3125 81.308594 106.863281 88.703125 110.71875 C 92.425781 112.65625 96.375 114.128906 100.453125 115.101562 C 101.476562 115.335938 102.507812 115.597656 103.53125 115.789062 L 105.085938 116.0625 L 106.648438 116.269531 C 108.738281 116.503906 110.839844 116.625 112.945312 116.625 C 121.386719 116.597656 129.695312 114.492188 137.132812 110.492188 C 140.824219 108.527344 144.257812 106.113281 147.355469 103.300781 C 150.429688 100.515625 153.175781 97.382812 155.542969 93.972656 C 157.871094 90.578125 159.8125 86.933594 161.332031 83.105469 C 161.738281 82.164062 162.058594 81.191406 162.394531 80.222656 C 162.566406 79.742188 162.730469 79.261719 162.867188 78.769531 L 163.296875 77.300781 C 163.550781 76.304688 163.8125 75.324219 164.03125 74.332031 C 164.25 73.335938 164.496094 72.339844 164.714844 71.347656 C 166.097656 63.285156 165.585938 55.011719 163.230469 47.183594 C 165.394531 55.023438 165.714844 63.257812 164.167969 71.242188 Z M 149.691406 59.410156 C 149.449219 59.140625 149.144531 58.9375 148.804688 58.820312 C 148.464844 58.699219 148.101562 58.667969 147.746094 58.722656 C 146.570312 58.914062 145.417969 59.253906 144.320312 59.722656 C 141.492188 61.246094 138.832031 63.066406 136.382812 65.144531 C 134.695312 66.582031 132.726562 67.644531 130.597656 68.257812 C 126.804688 69.167969 122.914062 69.628906 119.011719 69.628906 C 117.597656 69.578125 116.175781 69.621094 114.765625 69.769531 C 112.027344 70.207031 109.785156 71.75 107.675781 73.464844 C 106.992188 74.054688 106.304688 74.695312 105.621094 75.3125 C 105.796875 74.914062 106.027344 74.539062 106.304688 74.207031 C 107.097656 73.15625 107.964844 72.171875 108.910156 71.257812 C 111.917969 68.675781 115.039062 66.226562 118.070312 63.660156 C 118.90625 62.953125 119.644531 62.140625 120.273438 61.242188 C 120.566406 60.828125 120.726562 60.339844 120.738281 59.835938 C 120.753906 59.328125 120.613281 58.832031 120.34375 58.40625 C 120.09375 58.011719 119.730469 57.695312 119.304688 57.511719 C 118.875 57.324219 118.398438 57.269531 117.9375 57.359375 C 116.382812 57.5 114.886719 58.050781 113.609375 58.949219 C 111.046875 60.617188 108.582031 62.449219 105.996094 64.074219 C 104.253906 65.191406 102.421875 66.167969 100.515625 66.984375 C 98.296875 67.910156 95.917969 68.457031 93.664062 69.351562 C 90.472656 70.613281 87.566406 72.519531 85.136719 74.949219 C 81.738281 78.328125 79.738281 82.867188 79.53125 87.660156 C 79.503906 89.128906 79.273438 90.585938 78.847656 91.988281 C 78.546875 92.8125 77.992188 94.046875 77.3125 95.46875 L 76.738281 96.675781 L 75.933594 98.308594 C 80.378906 102.519531 85.40625 106.070312 90.863281 108.84375 C 91.191406 107.679688 91.546875 106.476562 91.878906 105.332031 L 92.238281 104.0625 C 92.753906 102.300781 93.199219 100.777344 93.417969 99.90625 C 93.84375 98.265625 94.386719 96.648438 95.6875 95.453125 C 96.957031 94.238281 98.292969 93.09375 99.6875 92.023438 C 101.847656 90.519531 104.21875 89.335938 106.722656 88.519531 C 108.347656 87.925781 109.976562 87.371094 111.554688 86.671875 C 114.355469 85.425781 116.65625 83.414062 119.089844 81.589844 C 120.636719 80.324219 122.292969 79.195312 124.035156 78.214844 C 126.589844 76.9375 129.277344 75.921875 131.949219 74.90625 C 134.726562 73.960938 137.28125 72.441406 139.441406 70.453125 C 141.355469 68.589844 143.617188 67.078125 145.671875 65.425781 C 146.953125 64.410156 148.246094 63.367188 149.472656 62.316406 C 150.605469 61.328125 150.628906 60.335938 149.691406 59.410156 Z M 111.820312 28.914062 C 110.964844 34.539062 110.277344 35.417969 105.847656 36.496094 C 110.277344 37.578125 110.964844 38.449219 111.820312 44.042969 C 112.667969 38.414062 113.363281 37.542969 117.792969 36.496094 C 113.363281 35.417969 112.667969 34.539062 111.820312 28.914062 Z M 124.679688 32.25 C 123.996094 32.40625 123.308594 32.585938 122.625 32.777344 C 122.273438 32.847656 121.929688 32.949219 121.597656 33.078125 C 121.261719 33.21875 120.945312 33.410156 120.664062 33.640625 L 120.664062 33.6875 C 121.03125 33.695312 121.394531 33.648438 121.746094 33.550781 C 122.089844 33.453125 122.421875 33.320312 122.742188 33.160156 C 123.425781 32.878906 124.050781 32.589844 124.699219 32.289062 Z M 122.753906 28.515625 C 122.140625 28.886719 121.539062 29.269531 120.945312 29.667969 C 120.632812 29.839844 120.335938 30.042969 120.0625 30.273438 C 119.796875 30.511719 119.566406 30.789062 119.378906 31.09375 L 119.378906 31.136719 C 119.726562 31.03125 120.058594 30.875 120.363281 30.671875 C 120.65625 30.464844 120.929688 30.234375 121.1875 29.984375 C 121.726562 29.515625 122.261719 29.039062 122.78125 28.550781 Z M 119.773438 25.574219 C 119.308594 26.113281 118.851562 26.664062 118.402344 27.21875 C 118.167969 27.484375 117.949219 27.769531 117.753906 28.070312 C 117.566406 28.382812 117.421875 28.71875 117.328125 29.070312 L 117.371094 29.070312 C 117.671875 28.863281 117.941406 28.609375 118.171875 28.324219 C 118.382812 28.039062 118.574219 27.734375 118.738281 27.417969 C 119.109375 26.808594 119.464844 26.191406 119.816406 25.566406 Z M 116.035156 23.6875 C 115.753906 24.371094 115.492188 25.011719 115.238281 25.683594 C 115.09375 26.007812 114.972656 26.34375 114.882812 26.691406 C 114.796875 27.046875 114.765625 27.410156 114.785156 27.773438 L 114.835938 27.773438 C 115.054688 27.484375 115.234375 27.164062 115.363281 26.820312 C 115.484375 26.484375 115.570312 26.136719 115.628906 25.785156 C 115.792969 25.089844 115.945312 24.390625 116.082031 23.6875 Z M 111.828125 19.570312 C 111.777344 20.867188 111.746094 22.15625 111.722656 23.453125 C 111.722656 24.140625 111.664062 24.75 111.722656 25.402344 C 111.761719 26.050781 111.851562 26.699219 111.992188 27.335938 L 112.039062 27.335938 C 112.15625 26.691406 112.222656 26.042969 112.230469 25.386719 C 112.230469 24.742188 112.183594 24.097656 112.140625 23.445312 C 112.074219 22.15625 111.992188 20.863281 111.894531 19.5625 Z M 107.757812 23.742188 C 107.921875 24.425781 108.101562 25.113281 108.285156 25.800781 C 108.359375 26.148438 108.457031 26.492188 108.585938 26.828125 C 108.730469 27.164062 108.917969 27.476562 109.148438 27.761719 L 109.195312 27.761719 C 109.207031 27.394531 109.164062 27.03125 109.066406 26.675781 C 108.960938 26.335938 108.828125 26.003906 108.667969 25.683594 C 108.394531 24.996094 108.105469 24.371094 107.804688 23.71875 Z M 104.039062 25.667969 C 104.40625 26.28125 104.792969 26.882812 105.183594 27.480469 C 105.355469 27.792969 105.558594 28.089844 105.785156 28.363281 C 106.027344 28.628906 106.304688 28.859375 106.605469 29.050781 L 106.648438 29.050781 C 106.542969 28.703125 106.386719 28.367188 106.1875 28.0625 C 105.984375 27.769531 105.753906 27.492188 105.503906 27.238281 C 105.039062 26.699219 104.566406 26.164062 104.078125 25.640625 Z M 101.089844 28.660156 C 101.632812 29.125 102.179688 29.585938 102.742188 30.03125 C 103.003906 30.285156 103.285156 30.511719 103.585938 30.71875 C 103.902344 30.902344 104.238281 31.046875 104.59375 31.144531 L 104.59375 31.101562 C 104.398438 30.785156 104.15625 30.5 103.878906 30.25 C 103.597656 30.035156 103.292969 29.84375 102.976562 29.683594 C 102.371094 29.3125 101.757812 28.953125 101.125 28.605469 Z M 99.214844 32.40625 C 99.898438 32.6875 100.535156 32.949219 101.199219 33.203125 C 101.527344 33.347656 101.863281 33.464844 102.207031 33.558594 C 102.566406 33.644531 102.933594 33.675781 103.296875 33.65625 L 103.296875 33.605469 C 103.007812 33.386719 102.6875 33.207031 102.347656 33.078125 C 102.007812 32.957031 101.660156 32.867188 101.304688 32.8125 C 100.621094 32.644531 99.933594 32.496094 99.25 32.359375 Z M 128.671875 36.324219 C 127.378906 36.253906 126.089844 36.191406 124.796875 36.144531 C 124.152344 36.144531 123.5 36.0625 122.855469 36.097656 C 122.207031 36.121094 121.558594 36.195312 120.917969 36.324219 L 120.917969 36.378906 C 121.558594 36.503906 122.207031 36.582031 122.855469 36.605469 C 123.5 36.605469 124.152344 36.605469 124.796875 36.550781 C 126.089844 36.507812 127.378906 36.445312 128.671875 36.378906 Z M 124.597656 40.480469 C 123.914062 40.1875 123.28125 39.910156 122.625 39.652344 C 122.300781 39.5 121.96875 39.371094 121.625 39.273438 C 121.269531 39.183594 120.902344 39.144531 120.535156 39.15625 L 120.535156 39.203125 C 120.824219 39.429688 121.140625 39.613281 121.480469 39.753906 C 121.816406 39.875 122.160156 39.96875 122.507812 40.035156 C 123.191406 40.214844 123.878906 40.378906 124.597656 40.527344 Z M 122.753906 44.246094 C 122.21875 43.765625 121.6875 43.300781 121.128906 42.875 C 120.871094 42.625 120.59375 42.394531 120.300781 42.1875 C 119.988281 41.996094 119.652344 41.851562 119.300781 41.75 L 119.300781 41.792969 C 119.503906 42.09375 119.75 42.367188 120.027344 42.601562 C 120.308594 42.820312 120.609375 43.019531 120.925781 43.191406 C 121.527344 43.566406 122.136719 43.9375 122.753906 44.300781 Z M 119.84375 47.257812 C 119.488281 46.640625 119.117188 46.03125 118.734375 45.425781 C 118.5625 45.113281 118.363281 44.816406 118.144531 44.535156 C 117.910156 44.253906 117.640625 44.003906 117.335938 43.800781 L 117.292969 43.835938 C 117.394531 44.1875 117.542969 44.523438 117.738281 44.832031 C 117.945312 45.128906 118.171875 45.40625 118.425781 45.667969 C 118.882812 46.214844 119.339844 46.757812 119.792969 47.292969 Z M 116.164062 49.242188 C 116.011719 48.554688 115.847656 47.871094 115.671875 47.183594 C 115.605469 46.832031 115.511719 46.488281 115.390625 46.15625 C 115.261719 45.785156 115.074219 45.4375 114.839844 45.125 L 114.792969 45.125 C 114.78125 45.492188 114.820312 45.859375 114.910156 46.214844 C 115.007812 46.558594 115.136719 46.894531 115.285156 47.21875 C 115.546875 47.902344 115.828125 48.535156 116.117188 49.195312 Z M 112.054688 53.460938 C 112.121094 52.164062 112.183594 50.867188 112.226562 49.578125 C 112.226562 48.890625 112.3125 48.28125 112.277344 47.628906 C 112.253906 46.976562 112.179688 46.328125 112.054688 45.6875 L 112 45.6875 C 111.871094 46.328125 111.796875 46.976562 111.773438 47.628906 C 111.738281 48.316406 111.773438 48.925781 111.820312 49.578125 C 111.867188 50.867188 111.929688 52.164062 112 53.460938 Z M 107.902344 49.34375 C 108.191406 48.660156 108.46875 48.035156 108.730469 47.367188 C 108.882812 47.046875 109.007812 46.710938 109.109375 46.367188 C 109.199219 46.011719 109.238281 45.648438 109.222656 45.28125 L 109.175781 45.28125 C 108.949219 45.570312 108.765625 45.890625 108.628906 46.230469 C 108.507812 46.566406 108.410156 46.910156 108.347656 47.257812 C 108.167969 47.945312 108.003906 48.632812 107.855469 49.316406 Z M 104.140625 47.503906 C 104.597656 46.972656 105.054688 46.429688 105.511719 45.878906 C 105.761719 45.617188 105.988281 45.339844 106.195312 45.042969 C 106.386719 44.734375 106.535156 44.398438 106.632812 44.046875 L 106.59375 44.046875 C 106.292969 44.253906 106.019531 44.5 105.785156 44.78125 C 105.5625 45.0625 105.367188 45.359375 105.195312 45.675781 C 104.820312 46.277344 104.453125 46.886719 104.085938 47.503906 Z M 101.140625 44.589844 C 101.757812 44.226562 102.367188 43.855469 102.96875 43.472656 C 103.28125 43.300781 103.578125 43.109375 103.859375 42.890625 C 104.128906 42.648438 104.367188 42.375 104.566406 42.074219 L 104.566406 42.03125 C 104.214844 42.136719 103.882812 42.285156 103.570312 42.476562 C 103.273438 42.683594 102.996094 42.910156 102.734375 43.164062 C 102.1875 43.621094 101.648438 44.078125 101.113281 44.535156 Z M 99.171875 40.878906 C 99.859375 40.734375 100.542969 40.570312 101.230469 40.390625 C 101.582031 40.324219 101.925781 40.230469 102.261719 40.109375 C 102.601562 39.972656 102.921875 39.785156 103.207031 39.5625 L 103.207031 39.511719 C 102.84375 39.5 102.480469 39.539062 102.125 39.628906 C 101.78125 39.726562 101.449219 39.851562 101.125 40.007812 C 100.441406 40.269531 99.804688 40.542969 99.152344 40.832031 Z M 94.960938 36.761719 C 96.253906 36.835938 97.550781 36.894531 98.839844 36.941406 C 99.488281 36.941406 100.132812 37.023438 100.785156 36.988281 C 101.433594 36.964844 102.082031 36.886719 102.722656 36.761719 L 102.722656 36.714844 C 102.082031 36.589844 101.433594 36.511719 100.785156 36.488281 C 100.132812 36.488281 99.488281 36.488281 98.839844 36.535156 C 97.550781 36.582031 96.253906 36.640625 94.960938 36.714844 Z M 94.960938 36.761719 "/>
</g>
</svg>
