<svg width="196" height="56" viewBox="0 0 196 56" fill="none" xmlns="http://www.w3.org/2000/svg">
<g clip-path="url(#clip0)">
<path d="M14.1425 29.875C19.3952 30.5311 18.4767 34.7955 15.918 34.7955C15.0522 34.7762 14.2276 34.422 13.6176 33.8073C12.6991 33.02 12.3875 31.183 10.2716 31.183C5.15017 31.183 4.03485 37.6823 4.03485 41.6228C4.03485 48.3188 8.62736 54.4244 17.755 54.4244C26.8826 54.4244 32.0697 48.2573 32.0697 39.7735C32.0697 21.1287 5.4167 30.65 5.4167 15.0887C5.4167 8.32708 11.3911 5.37065 17.7591 5.37065C19.8985 5.36611 22.0253 5.69821 24.0615 6.35476L24.1271 6.28915C25.2639 6.69205 26.3618 7.1971 27.4075 7.79812C27.4421 7.83551 27.4883 7.86008 27.5387 7.86783C28.4578 8.40556 29.297 9.06945 30.0318 9.84015C31.7416 11.8904 30.5607 13.6495 29.1132 13.6495C28.4572 13.6495 27.8011 13.3214 27.2762 12.4644C26.3577 11.0211 26.6202 9.11847 23.9262 7.73662C22.0969 7.06001 20.1645 6.70487 18.2142 6.6869C13.8144 6.6951 9.878 8.61001 9.68118 13.1205C9.27113 24.7453 37.9743 17.8483 38.044 39.3183C38.044 48.6428 30.4295 55.999 17.8862 55.999C7.38082 55.9416 0.410044 50.4921 0.0287012 42.4142C-0.496157 33.549 6.46232 28.8868 14.1425 29.875Z" fill="#80395E"/>
<path d="M57.0212 16.7422H57.5461C65.6858 17.0046 70.8074 22.5199 70.8074 30.2044C70.8074 31.3198 70.1513 32.3039 68.6423 32.3039H47.6965C47.7621 42.0879 53.343 45.963 58.9895 45.8358C62.799 45.7702 66.2107 44.3227 68.2486 40.9151C68.3402 40.7286 68.4795 40.5697 68.6523 40.4545C68.8252 40.3392 69.0254 40.2718 69.2328 40.259C69.8233 40.259 70.3482 40.9807 69.8889 41.7681C67.9206 45.3807 63.2582 47.7426 57.9398 47.7426C50.5833 47.7426 42.8373 43.6051 42.7061 32.3777C42.5749 23.176 48.0246 16.7422 57.0212 16.7422ZM47.8277 30.4668H62.9999C65.4931 30.4668 66.4772 29.3515 66.4772 27.1864C66.4772 22.8521 63.3936 18.6531 57.5502 18.6531C51.1738 18.8622 48.2214 23.5041 47.8277 30.4668Z" fill="#80395E"/>
<path d="M50.1282 0C51.506 0 52.8181 0.98411 53.0805 3.35007C53.4086 6.69605 56.037 7.94259 59.5798 7.94259C66.2799 7.94259 76.3219 3.43208 80.1312 0.590466C80.3727 0.399321 80.677 0.305678 80.9841 0.328037C81.0919 0.323642 81.1994 0.340528 81.3006 0.377729C81.4018 0.414931 81.4946 0.471717 81.5738 0.54484C81.653 0.617963 81.7171 0.705987 81.7622 0.803877C81.8074 0.901767 81.8328 1.0076 81.837 1.11532V42.8744C81.837 46.3557 83.7438 45.8308 85.9744 46.1547C86.1113 46.1775 86.2349 46.25 86.3214 46.3584C86.408 46.4668 86.4514 46.6034 86.4432 46.7419C86.4351 46.8804 86.376 47.011 86.2773 47.1085C86.1786 47.206 86.0474 47.2636 85.9088 47.2701H73.304C73.1654 47.2636 73.0342 47.206 72.9355 47.1085C72.8368 47.011 72.7777 46.8804 72.7696 46.7419C72.7614 46.6034 72.8048 46.4668 72.8914 46.3584C72.9779 46.25 73.1015 46.1775 73.2384 46.1547C75.469 45.8267 77.3757 46.3516 77.3757 42.8744V7.94259C77.3757 6.2368 76.8509 5.51511 75.8627 5.51511C75.2665 5.53628 74.6831 5.69336 74.1569 5.97437H74.2184C68.9698 8.20091 62.4706 10.1773 57.1523 10.1773C52.5557 10.1773 48.812 8.66837 47.4998 4.72783C46.5813 1.7714 48.3527 0 50.1282 0Z" fill="#80395E"/>
<path d="M102.261 16.6765H102.852C110.926 16.9389 116.043 22.4541 116.043 30.1383C116.043 31.2536 115.387 32.2378 113.878 32.2378H93.0024C93.0024 42.0214 98.6488 45.8964 104.295 45.7693C113.554 45.7693 117.417 37.0353 121.693 29.0927V24.0327C121.693 20.4858 121.283 20.5514 118.151 20.5514C117.49 20.5514 117.162 19.6329 118.216 19.3705C120.578 18.7144 123.268 17.9231 125.437 16.8733C125.765 16.6765 126.224 16.7421 126.224 17.2014V22.1424C128.787 18.9933 132.002 16.7585 136.533 16.7585C142.179 16.5617 147.694 19.5181 147.694 25.4925V42.9563C147.694 46.4376 149.597 45.8267 151.832 46.2367C152.422 46.3679 152.422 47.352 151.766 47.352H147.235C143.623 47.352 143.163 45.4494 143.163 43.0835V25.4761C143.163 21.4699 140.08 19.5017 136.533 19.2393C121.3 19.2393 123.268 47.6678 104.295 47.6678H103.18C95.8236 47.6678 88.1434 43.5304 87.9466 32.3034C87.881 23.1101 93.2649 16.6765 102.261 16.6765ZM108.252 30.4007C110.745 30.4007 111.729 29.2813 111.729 27.1204C111.795 22.7862 108.646 18.5873 102.868 18.5873C96.4304 18.7842 93.4781 23.4423 93.0844 30.4048L108.252 30.4007ZM117.572 46.2244C119.807 45.8144 121.71 46.4212 121.71 42.944V35.8503C122.694 33.9435 123.616 32.0409 124.601 30.2695C124.692 30.1021 124.824 29.9603 124.985 29.8572C125.145 29.754 125.329 29.6928 125.519 29.6791C125.929 29.6791 126.241 30.0071 126.241 30.6632V42.9399C126.241 46.4212 128.143 45.8103 130.378 46.2203C130.969 46.3515 130.969 47.3356 130.312 47.3356H117.622C116.966 47.3397 116.966 46.3556 117.556 46.2244H117.572Z" fill="#80395E"/>
<path d="M169.164 16.6765H169.689C177.833 16.9389 182.954 22.5197 182.954 30.1383C182.967 30.4317 182.918 30.7246 182.809 30.9975C182.701 31.2705 182.536 31.5174 182.325 31.7219C182.114 31.9265 181.863 32.084 181.587 32.1843C181.311 32.2845 181.016 32.3251 180.723 32.3034H159.844C159.91 41.6934 166.278 45.962 173.17 45.962C176.982 45.9384 180.694 44.7462 183.807 42.5463H183.873C192.484 35.6534 193.263 24.82 188.01 17.3326C185.906 14.3803 187.813 12.1455 189.847 12.1455C190.333 12.1594 190.808 12.3003 191.223 12.5542C191.638 12.8081 191.979 13.1662 192.213 13.593C198.647 24.7544 193.131 38.6714 185.185 44.0553C181.904 46.6181 177.308 47.9958 172.646 47.9958C163.846 47.9958 154.985 43.1368 154.854 32.3034C154.722 23.1757 160.172 16.6765 169.164 16.6765ZM175.139 30.4664C177.636 30.4664 178.554 29.2813 178.62 27.186C178.62 22.7862 175.536 18.575 169.689 18.575C163.321 18.7718 160.369 23.43 159.91 30.4664H175.139Z" fill="#80395E"/>
</g>
<defs>
<clipPath id="clip0">
<rect width="195.006" height="56" fill="white"/>
</clipPath>
</defs>
</svg>
