<svg width="100" height="100" viewBox="0 0 100 100" fill="none" xmlns="http://www.w3.org/2000/svg">
<path d="M49.9997 8.33331C26.9997 8.33331 8.33301 27 8.33301 50C8.33301 73 26.9997 91.6667 49.9997 91.6667C72.9997 91.6667 91.6664 73 91.6664 50C91.6664 27 72.9997 8.33331 49.9997 8.33331ZM49.9997 83.3333C31.6247 83.3333 16.6663 68.375 16.6663 50C16.6663 31.625 31.6247 16.6666 49.9997 16.6666C68.3747 16.6666 83.333 31.625 83.333 50C83.333 68.375 68.3747 83.3333 49.9997 83.3333ZM53.708 46.25C46.2913 43.7916 42.708 42.25 42.708 38.3333C42.708 34.0833 47.333 32.5416 50.2497 32.5416C55.708 32.5416 57.708 36.6666 58.1663 38.125L64.7497 35.3333C64.1247 33.5 61.333 27.375 53.6663 26.0416V20.8333H46.3747V26.0833C35.5413 28.4166 35.458 37.9583 35.458 38.4166C35.458 47.875 44.833 50.5416 49.4163 52.2083C55.9997 54.5416 58.9163 56.6667 58.9163 60.6667C58.9163 65.375 54.5413 67.375 50.6663 67.375C43.083 67.375 40.9163 59.5833 40.6663 58.6666L33.7497 61.4583C36.3747 70.5833 43.2497 73.0416 46.333 73.7916V79.1666H53.6247V74C55.7913 73.625 66.208 71.5417 66.208 60.5833C66.2497 54.7916 63.708 49.7083 53.708 46.25Z" fill="#FF73BB"/>
</svg>
