<svg width="100" height="100" viewBox="0 0 100 100" fill="none" xmlns="http://www.w3.org/2000/svg">
<path d="M49.9993 50C45.416 50 41.666 46.25 41.666 41.6666C41.666 37.0833 45.416 33.3333 49.9993 33.3333C54.5827 33.3333 58.3327 37.0833 58.3327 41.6666C58.3327 46.25 54.5827 50 49.9993 50ZM74.9993 42.5C74.9993 27.375 63.9577 16.6666 49.9993 16.6666C36.041 16.6666 24.9993 27.375 24.9993 42.5C24.9993 52.25 33.1243 65.1667 49.9993 80.5833C66.8743 65.1667 74.9993 52.25 74.9993 42.5ZM49.9993 8.33331C67.4993 8.33331 83.3327 21.75 83.3327 42.5C83.3327 56.3333 72.2077 72.7083 49.9993 91.6667C27.791 72.7083 16.666 56.3333 16.666 42.5C16.666 21.75 32.4993 8.33331 49.9993 8.33331Z" fill="#FF73BB"/>
</svg>
